HIERARCHY
ROOT Hips
{
	OFFSET 0.000000 0.000000 0.000000
	CHANNELS 6 Xposition Yposition Zposition Xrotation Yrotation Zrotation
	JOINT Spine
	{
		OFFSET 0.000000 0.053497 0.080245
		CHANNELS 3 Xrotation Yrotation Zrotation
		JOINT Spine1
		{
			OFFSET 0.000000 0.018579 0.105368
			CHANNELS 3 Xrotation Yrotation Zrotation
			JOINT Spine2
			{
				OFFSET 0.000000 0.009325 0.106586
				CHANNELS 3 Xrotation Yrotation Zrotation
				JOINT Spine3
				{
					OFFSET 0.000000 0.000000 0.106993
					CHANNELS 3 Xrotation Yrotation Zrotation
					JOINT Neck
					{
						OFFSET 0.000000 -0.040122 0.280858
						CHANNELS 3 Xrotation Yrotation Zrotation
						JOINT Head
						{
							OFFSET 0.000000 -0.025546 0.144881
							CHANNELS 3 Xrotation Yrotation Zrotation
							End Site
							{
								OFFSET 0.000000 0.000000 0.000000
							}
						}
					}
					JOINT RightShoulder
					{
						OFFSET -0.032541 -0.054234 0.175720
						CHANNELS 3 Xrotation Yrotation Zrotation
						JOINT RightArm
						{
							OFFSET -0.161619 0.000000 0.000000
							CHANNELS 3 Xrotation Yrotation Zrotation
							JOINT RightForeArm
							{
								OFFSET -0.257104 0.000000 0.000000
								CHANNELS 3 Xrotation Yrotation Zrotation
								JOINT RightHand
								{
									OFFSET -0.273485 0.000000 0.000000
									CHANNELS 3 Xrotation Yrotation Zrotation
									JOINT RightHandEnd
									{
										OFFSET -0.070844 0.000000 0.000000
										CHANNELS 3 Xrotation Yrotation Zrotation
										End Site
										{
											OFFSET 0.000000 0.000000 0.000000
										}
									}
									JOINT RightHandThumb1
									{
										OFFSET -0.028338 -0.047230 -0.018892
										CHANNELS 3 Xrotation Yrotation Zrotation
										End Site
										{
											OFFSET 0.000000 0.000000 0.000000
										}
									}
								}
							}
						}
					}
					JOINT LeftShoulder
					{
						OFFSET 0.032541 -0.054234 0.175720
						CHANNELS 3 Xrotation Yrotation Zrotation
						JOINT LeftArm
						{
							OFFSET 0.161619 0.000000 0.000000
							CHANNELS 3 Xrotation Yrotation Zrotation
							JOINT LeftForeArm
							{
								OFFSET 0.257104 0.000000 0.000000
								CHANNELS 3 Xrotation Yrotation Zrotation
								JOINT LeftHand
								{
									OFFSET 0.273485 0.000000 0.000000
									CHANNELS 3 Xrotation Yrotation Zrotation
									JOINT LeftHandEnd
									{
										OFFSET 0.070844 0.000000 0.000000
										CHANNELS 3 Xrotation Yrotation Zrotation
										End Site
										{
											OFFSET 0.000000 0.000000 0.000000
										}
									}
									JOINT LeftHandThumb1
									{
										OFFSET 0.028338 -0.047230 -0.018892
										CHANNELS 3 Xrotation Yrotation Zrotation
										End Site
										{
											OFFSET 0.000000 0.000000 0.000000
										}
									}
								}
							}
						}
					}
				}
			}
		}
	}
	JOINT RightUpLeg
	{
		OFFSET -0.096537 0.000000 -0.028202
		CHANNELS 3 Xrotation Yrotation Zrotation
		JOINT RightLeg
		{
			OFFSET 0.000000 0.000000 -0.431842
			CHANNELS 3 Xrotation Yrotation Zrotation
			JOINT RightFoot
			{
				OFFSET 0.000000 0.000000 -0.456398
				CHANNELS 3 Xrotation Yrotation Zrotation
				JOINT RightToeBase
				{
					OFFSET 0.000000 -0.128905 -0.046918
					CHANNELS 3 Xrotation Yrotation Zrotation
					End Site
					{
						OFFSET 0.000000 0.000000 0.000000
					}
				}
			}
		}
	}
	JOINT LeftUpLeg
	{
		OFFSET 0.096537 0.000000 -0.028202
		CHANNELS 3 Xrotation Yrotation Zrotation
		JOINT LeftLeg
		{
			OFFSET 0.000000 0.000000 -0.431842
			CHANNELS 3 Xrotation Yrotation Zrotation
			JOINT LeftFoot
			{
				OFFSET 0.000000 0.000000 -0.456398
				CHANNELS 3 Xrotation Yrotation Zrotation
				JOINT LeftToeBase
				{
					OFFSET 0.000000 -0.128905 -0.046918
					CHANNELS 3 Xrotation Yrotation Zrotation
					End Site
					{
						OFFSET 0.000000 0.000000 0.000000
					}
				}
			}
		}
	}
}
MOTION
Frames: 8
Frame Time: 0.033333
0.208252 1.023808 0.969099 -2.532700 -1.615200 3.690700 1.193700 3.076900 0.548200 0.087400 0.694200 0.090100 3.972600 -1.978200 -0.184600 0.755400 -0.896400 0.998500 0.040800 -3.155200 1.049000 -0.057700 0.752700 3.601900 -8.016600 6.713800 -0.707400 -30.029700 -0.823900 -30.074300 0.000000 0.000000 34.342900 0.065600 10.455800 -2.643300 0.000000 0.000000 0.000000 0.000000 0.000000 0.000000 -9.077900 -5.642200 -2.732200 -17.248200 5.027500 24.665100 0.000000 0.000000 -27.769300 -15.180400 -14.932000 6.824800 0.000000 0.000000 0.000000 0.000000 0.000000 0.000000 7.196800 3.857000 -25.675100 6.327200 0.000000 0.000000 -7.472800 -4.905500 -0.944600 0.293000 0.000000 0.000000 7.099000 -1.830800 18.142100 2.900200 0.000000 0.000000 -6.102800 23.804500 5.095300 7.795200 0.000000 0.000000 
0.207927 1.023800 0.969071 -2.539700 -1.609100 3.705400 1.195600 3.063300 0.543000 0.080400 0.694400 0.088800 3.988000 -1.992300 -0.188200 0.759300 -0.897700 0.995000 0.013700 -3.157700 1.024200 -0.030300 0.852700 3.522100 -8.018400 6.721000 -0.684700 -29.962100 -0.926400 -29.999900 0.000000 0.000000 34.288200 0.085700 10.441300 -2.629000 0.000000 0.000000 0.000000 0.000000 0.000000 0.000000 -9.073800 -5.610600 -2.713500 -17.267900 5.044000 24.583600 0.000000 0.000000 -27.748400 -15.084100 -14.816800 6.842200 0.000000 0.000000 0.000000 0.000000 0.000000 0.000000 7.193700 3.832300 -25.682700 6.352200 0.000000 0.000000 -7.494000 -4.871200 -0.954700 0.278900 0.000000 0.000000 7.100900 -1.855100 18.137400 2.896200 0.000000 0.000000 -6.125600 23.808000 5.125500 7.836700 0.000000 0.000000 
0.207366 1.023724 0.969015 -2.536400 -1.590100 3.721900 1.166800 3.038600 0.541200 0.056500 0.687700 0.087000 4.041100 -2.009400 -0.182900 0.769200 -0.904100 0.996600 -0.065200 -3.160800 0.996500 0.069800 0.989300 3.405300 -8.002800 6.718300 -0.664900 -29.886900 -1.060500 -29.899400 0.000000 0.000000 34.209600 0.120700 10.349200 -2.578100 0.000000 0.000000 0.000000 0.000000 0.000000 0.000000 -9.065300 -5.538700 -2.674000 -17.219800 5.074300 24.414900 0.000000 0.000000 -27.706400 -14.989800 -14.774100 6.910400 0.000000 0.000000 0.000000 0.000000 0.000000 0.000000 7.188000 3.779200 -25.710500 6.367700 0.000000 0.000000 -7.521000 -4.824200 -0.950400 0.258900 0.000000 0.000000 7.106600 -1.902800 18.171500 2.863800 0.000000 0.000000 -6.123200 23.834700 5.122400 7.883400 0.000000 0.000000 
0.206751 1.023610 0.968977 -2.528500 -1.574500 3.735700 1.125200 3.007900 0.545700 0.026000 0.674600 0.087400 4.107900 -2.009600 -0.156200 0.783100 -0.907800 0.998200 -0.163100 -3.155500 0.984400 0.176400 1.105500 3.312600 -7.979800 6.703100 -0.661200 -29.849300 -1.167900 -29.852400 0.000000 0.000000 34.157100 0.121300 10.215600 -2.521600 0.000000 0.000000 0.000000 0.000000 0.000000 0.000000 -9.050300 -5.462900 -2.634700 -17.113700 5.119300 24.232200 0.000000 0.000000 -27.690000 -14.961300 -14.760200 6.971700 0.000000 0.000000 0.000000 0.000000 0.000000 0.000000 7.188500 3.731600 -25.849000 6.370300 0.000000 0.000000 -7.526700 -4.816800 -0.847500 0.228900 0.000000 0.000000 7.121900 -1.948100 18.215600 2.810300 0.000000 0.000000 -6.083300 23.866600 5.096800 7.881500 0.000000 0.000000 
0.206200 1.023556 0.969002 -2.526200 -1.575500 3.769000 1.104200 2.974800 0.550600 0.006200 0.661300 0.088300 4.149300 -1.985200 -0.120100 0.792400 -0.906100 0.997800 -0.249200 -3.128700 0.984600 0.253800 1.212400 3.247800 -7.953200 6.674100 -0.673300 -29.844700 -1.235400 -29.880300 0.000000 0.000000 34.134600 0.088700 10.130600 -2.503500 0.000000 0.000000 0.000000 0.000000 0.000000 0.000000 -9.025500 -5.402200 -2.621200 -17.007500 5.157000 24.087400 0.000000 0.000000 -27.714500 -14.959900 -14.632300 6.996300 0.000000 0.000000 0.000000 0.000000 0.000000 0.000000 7.189700 3.711700 -26.094500 6.388700 0.000000 0.000000 -7.505200 -4.861700 -0.667400 0.183500 0.000000 0.000000 7.121500 -1.982000 18.201000 2.793900 0.000000 0.000000 -6.045400 23.876300 5.089200 7.851400 0.000000 0.000000 
0.205702 1.023633 0.969063 -2.515800 -1.590300 3.854500 1.097000 2.951800 0.550500 -0.002400 0.644800 0.088000 4.160000 -1.958200 -0.105700 0.792000 -0.901000 0.992600 -0.336200 -3.081400 0.988300 0.357000 1.366000 3.180700 -7.919900 6.634700 -0.693700 -29.850800 -1.285100 -29.926100 0.000000 0.000000 34.089900 0.032400 10.131200 -2.531500 0.000000 0.000000 0.000000 0.000000 0.000000 0.000000 -8.996000 -5.335500 -2.632300 -16.930100 5.160000 23.964700 0.000000 0.000000 -27.747500 -14.910200 -14.400300 7.029000 0.000000 0.000000 0.000000 0.000000 0.000000 0.000000 7.163100 3.709100 -26.310800 6.447000 0.000000 0.000000 -7.494300 -4.910100 -0.556700 0.139400 0.000000 0.000000 7.061100 -2.014200 18.092700 2.854400 0.000000 0.000000 -6.050500 23.855800 5.118600 7.879100 0.000000 0.000000 
0.205250 1.023765 0.969079 -2.509700 -1.603300 3.982800 1.100100 2.935000 0.545700 -0.004600 0.630100 0.085500 4.157100 -1.954600 -0.121800 0.786800 -0.900600 0.986500 -0.419700 -3.021000 1.014100 0.482500 1.546400 3.132100 -7.873700 6.620800 -0.712700 -29.885800 -1.342600 -29.956000 0.000000 0.000000 33.989200 -0.064200 10.171100 -2.586600 0.000000 0.000000 0.000000 0.000000 0.000000 0.000000 -8.967500 -5.260700 -2.646900 -16.896600 5.143500 23.853800 0.000000 0.000000 -27.766200 -14.827100 -14.242700 7.067500 0.000000 0.000000 0.000000 0.000000 0.000000 0.000000 7.126500 3.696500 -26.354000 6.534000 0.000000 0.000000 -7.536900 -4.907500 -0.636400 0.126800 0.000000 0.000000 6.982200 -2.054300 17.978800 2.943800 0.000000 0.000000 -6.073300 23.827700 5.121100 7.993100 0.000000 0.000000 
0.204887 1.023922 0.969005 -2.513500 -1.609600 4.101200 1.107500 2.912700 0.538800 -0.000800 0.620300 0.080900 4.155800 -1.968500 -0.143100 0.782900 -0.905100 0.982400 -0.454000 -2.958000 1.089000 0.526200 1.661200 3.159200 -7.835500 6.648900 -0.710000 -29.947300 -1.408800 -29.990200 0.000000 0.000000 33.860900 -0.193800 10.183500 -2.638800 0.000000 0.000000 0.000000 0.000000 0.000000 0.000000 -8.959100 -5.200800 -2.644500 -16.915500 5.130900 23.785600 0.000000 0.000000 -27.796800 -14.789900 -14.235300 7.055400 0.000000 0.000000 0.000000 0.000000 0.000000 0.000000 7.078800 3.678800 -26.200900 6.651900 0.000000 0.000000 -7.638500 -4.844000 -0.882800 0.145300 0.000000 0.000000 6.934600 -2.092000 17.940700 2.995600 0.000000 0.000000 -6.076800 23.818200 5.059100 8.115400 0.000000 0.000000 
